<svg width="163" height="59" viewBox="0 0 163 59" fill="none" xmlns="http://www.w3.org/2000/svg">
<path d="M107.49 5.88827L108.286 5.8273V1.61994L107 1.68092L106.816 2.29068H106.571L106.632 1.37604H110.246V2.29068H110.062L109.939 1.61994L108.653 1.55897V5.76632L109.511 5.8273V6.01023H107.428V5.88827H107.49Z" fill="white"/>
<path d="M112.451 5.88827L113.002 5.8273V1.61994L112.512 1.55897V1.37604H113.982V1.61994L113.492 1.68092V3.69313H116.064V1.61994L115.574 1.55897V1.37604H116.983V1.61994L116.493 1.68092V5.8273L117.044 5.88827V6.0712H115.513V5.88827L116.003 5.8273V3.93704H113.431V5.8273L113.92 5.88827V6.0712H112.451V5.88827Z" fill="white"/>
<path d="M119.433 5.88827L119.984 5.8273V1.61994H119.433V1.37604H122.618L122.679 2.2297H122.434L122.311 1.61994L120.474 1.55897V3.38825H121.699L121.76 2.90044H122.005V4.18094H121.76L121.699 3.69313H120.474V5.8273L122.495 5.76632L122.801 5.03461L123.046 5.09558L122.924 6.0712H119.433V5.88827Z" fill="white"/>
<path d="M88.9927 55.5839C88.9927 55.34 88.9927 55.157 89.0539 54.9741C89.1152 54.7912 89.1764 54.6083 89.2989 54.4253C89.4214 54.2424 89.4827 54.1204 89.6664 53.9985C89.7889 53.8765 89.9726 53.7546 90.0951 53.6936C90.2789 53.6326 90.4014 53.5107 90.5851 53.5107C90.7688 53.4497 90.9526 53.4497 91.1363 53.4497C91.2588 53.4497 91.3813 53.4497 91.5038 53.4497C91.6263 53.4497 91.6876 53.5107 91.8101 53.5107C91.8713 53.5107 91.9938 53.5717 92.0551 53.5717C92.1163 53.5717 92.1776 53.6326 92.2388 53.6326L92.1775 54.3643H91.9326L91.8101 53.8765C91.6876 53.8156 91.5651 53.7546 91.4426 53.6936C91.3201 53.6326 91.1363 53.6326 90.9526 53.6326C90.8301 53.6326 90.6464 53.6326 90.5239 53.6936C90.4014 53.7546 90.2789 53.7546 90.1564 53.8765C90.0339 53.9375 89.9114 54.0595 89.8501 54.1204C89.7276 54.2424 89.6664 54.3643 89.6052 54.4863C89.5439 54.6083 89.4827 54.7912 89.4214 54.9741C89.3602 55.157 89.3602 55.34 89.3602 55.5229C89.3602 55.7058 89.3602 55.8888 89.4214 56.0107C89.4827 56.1327 89.4827 56.3156 89.5439 56.4985C89.6051 56.6205 89.6664 56.7424 89.7889 56.8644C89.8501 56.9863 89.9726 57.1083 90.0951 57.1693C90.2176 57.2302 90.3401 57.2912 90.5239 57.3522C90.6464 57.4132 90.8301 57.4132 91.0138 57.4132C91.2588 57.4132 91.4426 57.4132 91.5651 57.3522C91.6876 57.2912 91.8713 57.2302 91.9326 57.1693L92.0551 56.7424H92.1163C92.1775 56.7424 92.1775 56.7424 92.1775 56.7424V57.4741C92.1163 57.4741 92.0551 57.4741 91.9938 57.5351C91.9326 57.5961 91.8713 57.4741 91.8101 57.4741C91.6876 57.4741 91.5651 57.5351 91.4426 57.5351C91.3201 57.5351 91.1363 57.5961 90.9526 57.5961C90.6464 57.5961 90.4014 57.5351 90.2176 57.4741C90.0339 57.4132 89.7889 57.2302 89.6052 57.0473C89.4214 56.8644 89.2989 56.6814 89.1764 56.4375C89.0539 56.1936 88.9927 55.8888 88.9927 55.5839Z" fill="white"/>
<path d="M94.0763 57.3522L94.4438 57.2912L95.8525 53.3887H96.1587L97.5674 57.2912L97.9961 57.3522V57.5351H96.7712V57.3522L97.1999 57.2912L96.8324 56.3156H95.1175L94.8113 57.2912L95.3012 57.3522V57.5351H94.0763V57.3522ZM96.7712 56.0717L96.22 54.4253L96.0362 53.8156L95.24 56.0717H96.7712Z" fill="white"/>
<path d="M99.8948 57.3522L100.385 57.2912V53.6936L99.956 53.6326V53.3887H100.813L102.712 56.4375L103.08 57.1693V53.6326L102.59 53.5717V53.3278H103.815V53.5717L103.325 53.6326V57.4741H102.896L100.997 54.4863L100.63 53.7546C100.63 53.8765 100.63 54.0595 100.63 54.2424C100.63 54.4253 100.63 54.6083 100.63 54.8522C100.63 55.0961 100.63 55.279 100.63 55.5229C100.63 55.7668 100.63 55.9497 100.63 56.1936C100.63 56.4375 100.63 56.6205 100.63 56.8034C100.63 56.9863 100.63 57.1693 100.63 57.2912L101.181 57.3522V57.5351H99.8948V57.3522Z" fill="white"/>
<path d="M106.387 57.3522L107.061 57.2912V53.6326L105.958 53.6936L105.775 54.2424H105.591L105.652 53.4497H108.837V54.2424H108.653L108.531 53.6936L107.428 53.6326V57.2912L108.163 57.3522V57.5351H106.326V57.3522H106.387Z" fill="white"/>
<path d="M110.797 57.3522L111.287 57.2912V53.6326L110.797 53.5717V53.3887H113.553L113.614 54.1204H113.369L113.247 53.6326H111.593V55.218H112.696L112.757 54.7912H112.941V55.8888H112.757L112.696 55.4619H111.593V57.2912L113.369 57.2302L113.614 56.6205L113.798 56.6814L113.675 57.5351H110.736V57.3522H110.797Z" fill="white"/>
<path d="M115.758 57.3522L116.309 57.2912V53.6936L115.819 53.6326V53.3887H116.493C116.615 53.3887 116.677 53.3887 116.86 53.3887C116.983 53.3887 117.167 53.3887 117.35 53.3887C117.534 53.3887 117.718 53.3887 117.902 53.4497C118.085 53.5107 118.208 53.5717 118.33 53.6326C118.453 53.6936 118.575 53.8156 118.637 53.9985C118.698 54.1204 118.759 54.3034 118.759 54.5473C118.759 54.6692 118.759 54.7912 118.698 54.9131C118.637 55.0351 118.575 55.157 118.514 55.218C118.453 55.34 118.33 55.4009 118.208 55.4619C118.085 55.5229 117.963 55.5839 117.84 55.6448C117.902 55.6448 117.963 55.7058 118.024 55.7668C118.085 55.8278 118.147 55.8888 118.208 55.9497C118.269 56.0107 118.33 56.1327 118.392 56.1936C118.453 56.3156 118.514 56.3766 118.575 56.4985C118.637 56.6205 118.698 56.6814 118.759 56.8034C118.82 56.9254 118.882 56.9863 118.882 57.0473C118.882 57.1083 118.943 57.1693 119.004 57.2302C119.065 57.2912 119.065 57.2912 119.127 57.2912L119.433 57.3522V57.5351H118.759C118.759 57.5351 118.698 57.5351 118.637 57.4741C118.575 57.4132 118.575 57.3522 118.514 57.2912C118.453 57.2302 118.392 57.1083 118.392 56.9863C118.33 56.8644 118.269 56.7424 118.208 56.6205C118.147 56.4985 118.085 56.3766 118.024 56.2546C117.963 56.1327 117.902 56.0717 117.84 55.9497C117.779 55.8888 117.718 55.8278 117.657 55.7668C117.595 55.7058 117.534 55.7058 117.412 55.7058C117.289 55.7058 117.228 55.7058 117.105 55.7058C116.983 55.7058 116.922 55.7058 116.799 55.7058V57.2912L117.35 57.3522V57.5351H115.758V57.3522ZM116.738 55.4619C116.738 55.4619 116.799 55.4619 116.86 55.4619C116.922 55.4619 116.983 55.4619 117.044 55.4619C117.105 55.4619 117.167 55.4619 117.228 55.4619C117.289 55.4619 117.35 55.4619 117.35 55.4619C117.534 55.4619 117.657 55.4619 117.779 55.4009C117.902 55.34 118.024 55.279 118.085 55.218C118.147 55.157 118.208 55.0351 118.269 54.9131C118.33 54.7912 118.33 54.6692 118.33 54.4863C118.33 54.3643 118.33 54.1814 118.269 54.0595C118.208 53.9375 118.147 53.8156 118.085 53.7546C118.024 53.6936 117.902 53.6326 117.779 53.5717C117.657 53.5107 117.473 53.5107 117.289 53.5107C117.228 53.5107 117.228 53.5107 117.167 53.5107C117.105 53.5107 117.044 53.5107 117.044 53.5107C116.983 53.5107 116.922 53.5107 116.922 53.5107C116.922 53.5107 116.86 53.5107 116.799 53.5107V55.4619H116.738Z" fill="white"/>
<path d="M121.148 57.3522L121.638 57.2912V53.6326L121.148 53.5717V53.3887H121.821C121.883 53.3887 122.005 53.3887 122.066 53.3887C122.128 53.3887 122.25 53.3887 122.311 53.3887C122.373 53.3887 122.495 53.3887 122.556 53.3887C122.618 53.3887 122.74 53.3887 122.863 53.3887C123.046 53.3887 123.23 53.3887 123.414 53.4497C123.598 53.5107 123.72 53.5717 123.843 53.6326C123.965 53.6936 124.026 53.8156 124.088 53.9375C124.149 54.0595 124.149 54.1814 124.149 54.3034C124.149 54.4253 124.149 54.5473 124.088 54.6692C124.026 54.7912 124.026 54.8522 123.965 54.9741C123.904 55.0961 123.843 55.157 123.72 55.218C123.598 55.279 123.475 55.34 123.353 55.34C123.475 55.34 123.659 55.34 123.781 55.4009C123.904 55.4619 124.026 55.5229 124.149 55.5839C124.271 55.6449 124.333 55.7668 124.394 55.8888C124.455 56.0107 124.455 56.1327 124.455 56.3156C124.455 56.4985 124.394 56.6814 124.333 56.8034C124.271 56.9863 124.149 57.1083 124.026 57.2302C123.904 57.3522 123.72 57.4132 123.475 57.4741C123.23 57.5351 122.985 57.5961 122.74 57.5961C122.679 57.5961 122.556 57.5961 122.495 57.5961C122.434 57.5961 122.311 57.5961 122.25 57.5961C122.189 57.5961 122.128 57.5961 122.005 57.5961C121.944 57.5961 121.883 57.5961 121.821 57.5961H121.148V57.3522ZM122.005 55.218C122.066 55.218 122.128 55.218 122.189 55.218C122.25 55.218 122.311 55.218 122.434 55.218C122.556 55.218 122.556 55.218 122.679 55.218C122.74 55.218 122.801 55.218 122.863 55.218C122.985 55.218 123.108 55.218 123.23 55.157C123.353 55.0961 123.475 55.0961 123.536 54.9741C123.598 54.9131 123.659 54.7912 123.72 54.6692C123.781 54.5473 123.781 54.4253 123.781 54.2424C123.781 54.1204 123.781 53.9985 123.72 53.8765C123.659 53.7546 123.598 53.6936 123.475 53.6326C123.353 53.5717 123.291 53.5107 123.169 53.5107C123.046 53.5107 122.924 53.4497 122.801 53.4497C122.74 53.4497 122.679 53.4497 122.618 53.4497C122.556 53.4497 122.495 53.4497 122.434 53.4497C122.373 53.4497 122.311 53.4497 122.25 53.4497C122.189 53.4497 122.128 53.4497 122.128 53.4497L122.005 55.218ZM122.005 57.2912C122.066 57.2912 122.066 57.2912 122.128 57.3522C122.189 57.3522 122.25 57.3522 122.311 57.3522C122.373 57.3522 122.434 57.3522 122.556 57.3522C122.618 57.3522 122.679 57.3522 122.74 57.3522C122.863 57.3522 123.046 57.3522 123.169 57.2912C123.291 57.2302 123.475 57.2302 123.536 57.1083C123.598 56.9863 123.72 56.9253 123.843 56.8034C123.904 56.6814 123.965 56.4985 123.965 56.3156C123.965 56.1327 123.965 56.0107 123.904 55.8888C123.843 55.7668 123.781 55.7058 123.659 55.5839C123.536 55.5229 123.475 55.4619 123.291 55.4619C123.108 55.4619 122.985 55.4009 122.863 55.4009C122.801 55.4009 122.74 55.4009 122.618 55.4009C122.495 55.4009 122.434 55.4009 122.373 55.4009C122.311 55.4009 122.189 55.4009 122.128 55.4009C122.066 55.4009 122.005 55.4009 121.944 55.4009V57.2912H122.005Z" fill="white"/>
<path d="M126.721 53.6326L126.292 53.5717V53.3887H127.579V53.5717L127.089 53.6326V55.8278C127.089 56.1327 127.15 56.3766 127.211 56.5595C127.272 56.7424 127.334 56.9254 127.456 57.0473C127.579 57.1693 127.701 57.2302 127.885 57.2912C128.069 57.3522 128.191 57.3522 128.375 57.3522C128.559 57.3522 128.742 57.2912 128.865 57.2302C128.987 57.1693 129.11 57.0473 129.232 56.9253C129.355 56.8034 129.416 56.6205 129.416 56.4375C129.477 56.2546 129.477 56.0107 129.477 55.7668V53.6326L128.987 53.5717V53.3887H130.151V53.5717L129.722 53.6326V55.7668C129.722 56.0717 129.661 56.3766 129.6 56.6205C129.539 56.8644 129.416 57.0473 129.294 57.1693C129.171 57.2912 128.987 57.4132 128.804 57.4741C128.62 57.5351 128.436 57.5961 128.191 57.5961C127.885 57.5961 127.64 57.5351 127.456 57.4741C127.272 57.4132 127.089 57.2912 126.966 57.1693C126.844 57.0473 126.721 56.8034 126.66 56.6205C126.599 56.4375 126.599 56.1327 126.599 55.8278V53.6326H126.721Z" fill="white"/>
<path d="M132.172 57.3522L132.723 57.2912V53.6936L132.233 53.6326V53.3887H132.907C133.03 53.3887 133.091 53.3887 133.275 53.3887C133.397 53.3887 133.581 53.3887 133.765 53.3887C133.948 53.3887 134.132 53.3887 134.316 53.4497C134.5 53.5107 134.622 53.5717 134.745 53.6326C134.867 53.6936 134.99 53.8156 135.051 53.9985C135.112 54.1204 135.173 54.3034 135.173 54.5473C135.173 54.6692 135.173 54.7912 135.112 54.9131C135.051 55.0351 134.99 55.157 134.928 55.218C134.867 55.279 134.745 55.4009 134.622 55.4619C134.5 55.5229 134.377 55.5839 134.255 55.6448C134.316 55.6448 134.377 55.7058 134.438 55.7668C134.5 55.8278 134.561 55.8888 134.622 55.9497C134.683 56.0107 134.745 56.1327 134.806 56.1936C134.867 56.3156 134.928 56.3766 134.99 56.4985C135.051 56.6205 135.112 56.6814 135.173 56.8034C135.235 56.8644 135.296 56.9863 135.296 57.0473C135.357 57.1083 135.357 57.1693 135.418 57.2302C135.48 57.2912 135.48 57.2912 135.541 57.2912L135.847 57.3522V57.5351H135.173C135.173 57.5351 135.112 57.5351 135.051 57.4741C134.99 57.4132 134.99 57.3522 134.928 57.2912C134.867 57.2302 134.806 57.1083 134.806 56.9863C134.806 56.8644 134.683 56.7424 134.622 56.6205C134.561 56.4985 134.5 56.3766 134.438 56.2546C134.377 56.1327 134.316 56.0717 134.255 55.9497C134.193 55.8888 134.132 55.8278 134.071 55.7668C134.01 55.7058 133.948 55.7058 133.826 55.7058C133.703 55.7058 133.642 55.7058 133.52 55.7058C133.397 55.7058 133.336 55.7058 133.213 55.7058V57.2912L133.765 57.3522V57.5351H132.233V57.3522H132.172ZM133.091 55.4619C133.091 55.4619 133.152 55.4619 133.213 55.4619C133.275 55.4619 133.336 55.4619 133.397 55.4619C133.458 55.4619 133.52 55.4619 133.581 55.4619C133.642 55.4619 133.703 55.4619 133.703 55.4619C133.887 55.4619 134.01 55.4619 134.132 55.4009C134.255 55.34 134.377 55.279 134.438 55.218C134.5 55.157 134.561 55.0351 134.622 54.9131C134.683 54.7912 134.683 54.6692 134.683 54.4863C134.683 54.3643 134.683 54.1814 134.622 54.0595C134.561 53.9375 134.5 53.8156 134.438 53.7546C134.377 53.6936 134.255 53.6326 134.132 53.5717C134.01 53.5107 133.826 53.5107 133.642 53.5107C133.581 53.5107 133.581 53.5107 133.52 53.5107C133.458 53.5107 133.397 53.5107 133.397 53.5107C133.336 53.5107 133.275 53.5107 133.275 53.5107C133.275 53.5107 133.213 53.5107 133.152 53.5107V55.4619H133.091Z" fill="white"/>
<path d="M138.358 57.3522L138.909 57.2912V55.8278L137.623 53.6326L137.317 53.5717V53.3887H138.542V53.5717L138.113 53.6326L139.032 55.34L139.154 55.6448L139.277 55.34L140.134 53.6326L139.706 53.5717V53.3887H140.869V53.5717L140.502 53.6326L139.338 55.8278V57.2912L139.889 57.3522V57.5351H138.419V57.3522H138.358Z" fill="white"/>
<path d="M74.6608 27.047V36.3763L77.3557 36.6202V37.9617H69.4548V36.6202L72.0884 36.3153V16.803L69.5773 16.4371V15.0956H77.3557V16.4371L74.6608 16.742V25.4006V27.047Z" fill="white"/>
<path d="M77.2332 25.4616H86.4204V16.803L83.8479 16.4371V15.0956H91.5039V16.4371L88.9928 16.803V36.3763L91.5039 36.6812V38.0227H83.9092V36.6812L86.4816 36.3763V27.047H77.2945" fill="white"/>
<path d="M96.4649 16.864L94.1375 16.4981V15.0956H101.732V16.4981L99.0985 16.864V28.3884C99.0985 31.3763 99.6497 33.4495 100.752 34.669C101.855 35.8885 103.386 36.4983 105.346 36.4983C107.306 36.4983 108.837 35.8275 109.817 34.4861C110.797 33.1446 111.348 31.1933 111.348 28.5714V16.864L108.776 16.4981V15.0956H115.635V16.4981L113.247 16.864V28.5104C113.247 30.6446 112.879 32.4129 112.205 33.8153C111.532 35.2178 110.552 36.3153 109.327 36.9861C108.102 37.6568 106.693 38.0227 105.101 38.0227C103.08 38.0227 101.487 37.6568 100.201 36.9251C98.9148 36.1934 97.996 35.0958 97.3836 33.6934C96.7711 32.2299 96.4649 30.4007 96.4649 28.1445V16.864Z" fill="white"/>
<path d="M119.188 20.5225C120.229 18.7542 121.576 17.4127 123.353 16.4981C125.129 15.5835 127.089 15.0956 129.232 15.0956C130.58 15.0956 131.805 15.2176 132.907 15.4005C134.01 15.5835 135.112 15.8274 136.215 16.0713L135.97 20.9494H134.377L133.703 17.5957C133.336 17.3518 132.785 17.1079 132.05 16.9249C131.253 16.742 130.273 16.62 128.987 16.62C127.395 16.62 125.925 16.9859 124.639 17.7176C123.353 18.4493 122.373 19.5469 121.638 20.9494C120.903 22.4128 120.535 24.1201 120.535 26.1323C120.535 27.9616 120.841 29.6689 121.393 31.2543C122.005 32.8397 122.863 34.1202 124.087 35.0958C125.251 36.0714 126.721 36.5593 128.436 36.5593C129.539 36.5593 130.58 36.4373 131.56 36.1934C132.54 35.9495 133.275 35.5836 133.887 35.1568V28.1445L129.6 27.8397V26.1933H138.419V27.8397L136.521 28.1445V36.4983C136.276 36.4983 135.97 36.5593 135.602 36.6202C135.296 36.6812 134.867 36.8032 134.316 36.9861C133.275 37.291 132.295 37.5958 131.376 37.7788C130.457 37.9617 129.416 38.0837 128.314 38.0837C126.109 38.0837 124.21 37.5958 122.618 36.6202C121.025 35.6446 119.8 34.3031 118.943 32.6568C118.085 30.9494 117.656 29.0592 117.656 26.925C117.656 24.425 118.208 22.2908 119.188 20.5225Z" fill="white"/>
<path d="M141.543 20.5835C142.462 18.8152 143.687 17.4737 145.279 16.4981C146.872 15.5225 148.587 15.0956 150.485 15.0956C152.568 15.0956 154.283 15.5835 155.752 16.4981C157.222 17.4127 158.325 18.6932 159.06 20.4006C159.795 22.1079 160.162 24.0591 160.162 26.3153C160.162 28.6324 159.734 30.7055 158.815 32.4738C157.896 34.2422 156.671 35.6446 155.079 36.5593C153.486 37.5349 151.71 38.0227 149.811 38.0227C147.79 38.0227 146.075 37.5349 144.667 36.6202C143.197 35.6446 142.156 34.3641 141.359 32.6568C140.624 30.9494 140.257 28.9982 140.257 26.7421C140.134 24.364 140.624 22.3518 141.543 20.5835ZM143.809 31.8031C144.36 33.3275 145.157 34.4861 146.259 35.3397C147.362 36.1934 148.587 36.6202 150.118 36.6202C151.526 36.6202 152.813 36.2544 153.854 35.4617C154.956 34.669 155.752 33.5104 156.365 31.986C156.977 30.4616 157.284 28.5714 157.284 26.3762C157.284 24.425 156.977 22.7786 156.426 21.2542C155.875 19.7908 155.079 18.6323 153.976 17.7786C152.935 16.9859 151.649 16.5591 150.179 16.5591C148.709 16.5591 147.484 16.9249 146.382 17.7176C145.279 18.4493 144.483 19.6079 143.87 21.1323C143.258 22.6567 142.952 24.486 142.952 26.7421C143.013 28.5714 143.258 30.2787 143.809 31.8031Z" fill="white"/>
<path d="M38.831 3.20532V56.0717H3.4299V3.20532H38.831ZM40.6684 1.37604H1.59247V57.9009H40.6684V1.37604Z" fill="white"/>
<path d="M32.89 30.7056C33.6003 30.7056 34.1762 30.1323 34.1762 29.4251C34.1762 28.7179 33.6003 28.1446 32.89 28.1446C32.1796 28.1446 31.6038 28.7179 31.6038 29.4251C31.6038 30.1323 32.1796 30.7056 32.89 30.7056Z" fill="white"/>
<path d="M16.5981 30.0348V37.169C16.5981 37.23 16.6593 37.291 16.7206 37.291L18.558 37.4739C18.6192 37.4739 18.6805 37.5349 18.6805 37.6568V38.5715H12.5557V37.6568C12.5557 37.5958 12.617 37.5349 12.6782 37.4739L14.4544 37.291C14.5156 37.291 14.5769 37.23 14.5769 37.169V22.2298C14.5769 22.1689 14.5156 22.1079 14.4544 22.1079L12.7395 21.864C12.6782 21.864 12.617 21.803 12.617 21.6811V20.7664H18.6805V21.6811C18.6805 21.742 18.6192 21.803 18.558 21.864L16.7206 22.1079C16.6593 22.1079 16.5981 22.1689 16.5981 22.2298V28.8153V30.0348Z" fill="white"/>
<path d="M18.6193 28.7544H25.6015C25.6627 28.7544 25.724 28.6934 25.724 28.6324V22.1689C25.724 22.108 25.6627 22.047 25.6015 22.047L23.8866 21.8031C23.8253 21.8031 23.7641 21.7421 23.7641 21.6201V20.7055H29.7051V21.6201C29.7051 21.6811 29.6438 21.7421 29.5826 21.8031L27.8676 22.047C27.8064 22.047 27.7451 22.108 27.7451 22.1689V37.1081C27.7451 37.1691 27.8064 37.23 27.8676 37.23L29.5826 37.413C29.6438 37.413 29.7051 37.474 29.7051 37.5959V38.5105H23.7641V37.5959C23.7641 37.5349 23.8253 37.474 23.8866 37.413L25.6015 37.23C25.6627 37.23 25.724 37.1691 25.724 37.1081V30.2178C25.724 30.1568 25.6627 30.0958 25.6015 30.0958H18.6193" fill="white"/>
</svg>
